<svg fill="#FFFFFF" xmlns="http://www.w3.org/2000/svg"  viewBox="0 0 50 50" width="50px" height="50px"><path d="M 19.509766 4.3144531 C 9.5887656 5.9844531 2 14.612 2 25 C 2 35.388 9.5887656 44.015547 19.509766 45.685547 C 11.055766 42.615547 5 34.502 5 25 C 5 15.498 11.055766 7.3844531 19.509766 4.3144531 z M 27 5 C 17.684 5 9.87925 11.379 7.65625 20 L 46.345703 20 C 44.121703 11.379 36.316 5 27 5 z M 7.2480469 22 C 7.1490469 22.657 7.0847812 23.324 7.0507812 24 L 46.949219 24 C 46.915219 23.324 46.851953 22.657 46.751953 22 L 7.2480469 22 z M 7.0507812 26 C 7.0847812 26.676 7.1490469 27.343 7.2480469 28 L 46.751953 28 C 46.850953 27.343 46.915219 26.676 46.949219 26 L 7.0507812 26 z M 7.65625 30 C 9.87925 38.621 17.684 45 27 45 C 36.316 45 44.12075 38.621 46.34375 30 L 7.65625 30 z"/></svg>